<?xml version="1.0" encoding="utf-8"?>
<?xml-stylesheet type="text/xsl" href="rss1.xsl"?>
<rss version="2.0" xmlns:atom="http://www.w3.org/2005/Atom" xmlns:content="http://purl.org/rss/1.0/modules/content/" xmlns:dc="http://purl.org/dc/elements/1.1/" xmlns:media="http://search.yahoo.com/mrss/">
<channel>
 <title>Getty</title>
 <link>http://www.gettyimg.com/</link>
 <atom:link href="http://www.gettyimg.com/" rel="self" type="application/rss+xml" />

 
                <item>
                <title><![CDATA[【Cinema Center】SERIES - Fim 4K (2160p) GLBO WEB-DL AAC2.0 (Português Brasileiro) H.265 (HEVC) DASH - 42.3GB MEGA]]></title>
                <link><![CDATA[https://sharemania.us/threads/fim-4k-2160p-glbo-web-dl-aac2-0-portugu%C3%AAs-brasileiro-h-265-hevc-dash-42-3gb-mega.241819/]]></link>
                <description><![CDATA[<article>
<blockquote class="messageText SelectQuoteContainer ugc baseHtml">
<span style="font-size: 22px"><b>Fim.S01.2160p.GLBO.WEB-DL.AAC2.0.H.265-DASH.mkv (Português Brasileiro | Brazilian Portuguese) | MEGA (42.3 GB) | 1 Temporada | 10 Episódios | DASH</b></span><br>
<span style="font-size: 18px"><br>
Título: </span><b><span style="font-size: 18px">Fim</span></b><br>
<span style="font-size: 18px"><br>
Ano de lançamento:<b> 2023</b><br>
<br>
Idioma: <b><b>Português (Brasil)</b></b><br>
<br>
Serviço:</span><b><b> <span style="font-size: 18px">GLOBOPLAY (Brasil)</span></b></b><br>
<br>
<div class="ToggleTriggerAnchor bbCodeSpoilerContainer">
<button type="button" class="button bbCodeSpoilerButton ToggleTrigger Tooltip JsOnly" data-target="> .SpoilerTarget"><span>Spoiler: <span class="SpoilerTitle">MediaInfo</span></span></button>
<div class="SpoilerTarget bbCodeSpoilerText">General<br>
Unique ID : 132050117640579213832110630199333768831 (0x6357ED756241ADFE06D5051127D84E7F)<br>
Complete name : Fim.S01.2160p.GLBO.WEB-DL.AAC2.0.H.265-DASH\Fim.S01E01.Capítulo.I.2160p.GLBO.WEB-DL.AAC2.0.H.265-DASH.mkv<br>
Format : Matroska<br>
Format version : Version 4<br>
File size : 4.14 GiB<br>
Duration : 46 min 12 s<br>
Overall bit rate : 12.8 Mb/s<br>
Frame rate : 23.976 FPS<br>
Encoded date : 2024-04-05 19:45:15 UTC<br>
Writing application : mkvmerge v82.0 ('I'm The President') 64-bit<br>
Writing library : libebml v1.4.5 + libmatroska v1.7.1<br>
<br>
Video<br>
ID : 1<br>
Format : HEVC<br>
Format/Info : High Efficiency Video Coding<br>
Format profile : Main 10@L5@Main<br>
Codec ID : V_MPEGH/ISO/HEVC<br>
Duration : 46 min 12 s<br>
Bit rate : 12.6 Mb/s<br>
Width : 3 840 pixels<br>
Height : 2 160 pixels<br>
Display aspect ratio : 16:9<br>
Frame rate mode : Constant<br>
Frame rate : 23.976 (24000/1001) FPS<br>
Color space : YUV<br>
Chroma subsampling : 4:2:0<br>
Bit depth : 10 bits<br>
Bits/(Pixel*Frame) : 0.063<br>
Stream size : 4.05 GiB (98%)<br>
Title : Portuguese<br>
Language : Portuguese<br>
Default : Yes<br>
Forced : No<br>
Color range : Limited<br>
<br>
Audio #1<br>
ID : 2<br>
Format : AAC LC<br>
Format/Info : Advanced Audio Codec Low Complexity<br>
Codec ID : A_AAC-2<br>
Duration : 46 min 12 s<br>
Bit rate : 128 kb/s<br>
Channel(s) : 2 channels<br>
Channel layout : L R<br>
Sampling rate : 44.1 kHz<br>
Frame rate : 43.066 FPS (1024 SPF)<br>
Compression mode : Lossy<br>
Stream size : 42.3 MiB (1%)<br>
Title : Portuguese<br>
Language : Portuguese<br>
Default : Yes<br>
Forced : No<br>
<br>
Audio #2<br>
ID : 3<br>
Format : AAC LC<br>
Format/Info : Advanced Audio Codec Low Complexity<br>
Codec ID : A_AAC-2<br>
Duration : 46 min 12 s<br>
Bit rate : 128 kb/s<br>
Channel(s) : 2 channels<br>
Channel layout : L R<br>
Sampling rate : 44.1 kHz<br>
Frame rate : 43.066 FPS (1024 SPF)<br>
Compression mode : Lossy<br>
Stream size : 42.3 MiB (1%)<br>
Title : Portuguese<br>
Language : Portuguese<br>
Default : No<br>
Forced : No<br>
<br>
Text #1<br>
ID : 4<br>
Format : UTF-8<br>
Codec ID : S_TEXT/UTF8<br>
Codec ID/Info : UTF-8 Plain Text<br>
Duration : 46 min 12 s<br>
Bit rate : 66 b/s<br>
Frame rate : 0.303 FPS<br>
Count of elements : 839<br>
Stream size : 22.6 KiB (0%)<br>
Title : Portuguese<br>
Language : Portuguese<br>
Default : No<br>
Forced : No<br>
<br>
Text #2<br>
ID : 5<br>
Format : UTF-8<br>
Codec ID : S_TEXT/UTF8<br>
Codec ID/Info : UTF-8 Plain Text<br>
Duration : 46 min 12 s<br>
Bit rate : 66 b/s<br>
Frame rate : 0.303 FPS<br>
Count of elements : 839<br>
Stream size : 22.6 KiB (0%)<br>
Title : Portuguese<br>
Language : Portuguese<br>
Default : No<br>
Forced : No</div>
</div><br>
<img src="https://i.imgur.com/QpZfcS0.jpeg" class="bbCodeImage LbImage" alt="[​IMG]" data-url="https://i.imgur.com/QpZfcS0.jpeg" style=""> <br>
<br>
<br>
<b><span style="font-size: 22px">Um grupo de amigos que não acredita que a vida se limita a encontrar o amor e ser feliz para sempre. Uma história sobre a vida, vista pelos olhos de quem acaba de deixá-la.</span></b><br>
<br>
<b><span style="font-size: 22px">Imagens:</span></b><br>
<img src="https://i.imgur.com/XmAUNLQ.png" class="bbCodeImage LbImage" alt="[​IMG]" data-url="https://i.imgur.com/XmAUNLQ.png" style=""> <br>
<b><span style="font-size: 22px"><br>
<b><span style="font-size: 26px">Download no Mega:</span></b></span><br>
<span style="font-size: 18px">
<div class="bbCodeBlock bbCodeVfcHH HiddenContent">
<div class="attribution type">Hidden Content:</div>
<blockquote>You must reply before you can see the hidden data contained here.</blockquote>
</div></span></b>
<div class="messageTextEndMarker">&nbsp;</div>
</blockquote>
</article>]]></description>
                <author><![CDATA[dash]]></author>
                </item>

                
                <item>
                <title><![CDATA[【TIDAL】WEB-RiP - Linkin Park - Papercut [Tidal HD Music Video]]]></title>
                <link><![CDATA[https://sharemania.us/threads/linkin-park-papercut-tidal-hd-music-video.241818/]]></link>
                <description><![CDATA[<article>
<blockquote class="messageText SelectQuoteContainer ugc baseHtml">
<span style="font-size: 22px"><b>Linkin Park - Papercut [Tidal HD Music Video]</b></span><br>
<br>
<img src="https://imgur.com/JjmTrNj.jpg" class="bbCodeImage LbImage" alt="[​IMG]" data-url="https://imgur.com/JjmTrNj.jpg" style=""><br>
<br>
<div class="bbCodeBlock bbCodeCode">
<div class="type">Code:</div>
<pre>General
Format                         : MPEG-4
Format profile                 : Base Media
Codec ID                       : isom (isom/iso2/avc1/mp41)
File size                      : 130 MiB
Duration                       : 3 min 15 s
Overall bit rate mode          : Variable
Overall bit rate               : 5 596 kb/s
Writing application            : Lavf58.76.100

Video
ID                             : 1
Format                         : AVC
Format/Info                    : Advanced Video Codec
Format profile                 : High@L4
Format settings                : CABAC / 4 Ref Frames
Format settings, CABAC         : Yes
Format settings, Reference fra : 4 frames
Codec ID                       : avc1
Codec ID/Info                  : Advanced Video Coding
Duration                       : 3 min 15 s
Source duration                : 3 min 15 s
Bit rate                       : 5 272 kb/s
Width                          : 1 920 pixels
Height                         : 1 080 pixels
Display aspect ratio           : 16:9
Frame rate mode                : Variable
Frame rate                     : 23.849 FPS
Minimum frame rate             : 11.853 FPS
Maximum frame rate             : 23.981 FPS
Color space                    : YUV
Chroma subsampling             : 4:2:0
Bit depth                      : 8 bits
Scan type                      : Progressive
Bits/(Pixel*Frame)             : 0.107
Stream size                    : 123 MiB (94%)
Source stream size             : 123 MiB (94%)
Writing library                : x264 core 164
Encoding settings              : cabac=1 / ref=4 / deblock=1:0:0 / analyse=0x3:0x113 / me=hex / subme=8 / psy=1 / psy_rd=1.00:0.00 / mixed_ref=1 / me_range=16 / chroma_me=1 / trellis=2 / 8x8dct=1 / cqm=0 / deadzone=21,11 / fast_pskip=1 / chroma_qp_offset=-2 / threads=24 / lookahead_threads=4 / sliced_threads=0 / nr=0 / decimate=1 / interlaced=0 / bluray_compat=0 / constrained_intra=0 / bframes=3 / b_pyramid=2 / b_adapt=1 / b_bias=0 / direct=3 / weightb=1 / open_gop=0 / weightp=2 / keyint=72 / keyint_min=37 / scenecut=0 / intra_refresh=0 / rc_lookahead=50 / rc=crf / mbtree=1 / crf=22.0 / qcomp=0.60 / qpmin=0 / qpmax=69 / qpstep=4 / vbv_maxrate=5500 / vbv_bufsize=11000 / crf_max=0.0 / nal_hrd=none / filler=0 / ip_ratio=1.40 / aq=1:1.00
mdhd_Duration                  : 195480
Codec configuration box        : avcC

Audio
ID                             : 2
Format                         : AAC LC
Format/Info                    : Advanced Audio Codec Low Complexity
Codec ID                       : mp4a-40-2
Duration                       : 3 min 15 s
Bit rate mode                  : Variable
Bit rate                       : 318 kb/s
Maximum bit rate               : 323 kb/s
Channel(s)                     : 2 channels
Channel layout                 : L R
Sampling rate                  : 48.0 kHz
Frame rate                     : 46.875 FPS (1024 SPF)
Compression mode               : Lossy
Stream size                    : 7.42 MiB (6%)
Default                        : Yes
Alternate group                : 1</pre>
</div>
<div class="bbCodeBlock bbCodeVfcHH HiddenContent">
<div class="attribution type">Hidden Content:</div>
<blockquote>You must reply before you can see the hidden data contained here.</blockquote>
</div>
<div class="messageTextEndMarker">&nbsp;</div>
</blockquote>
</article>]]></description>
                <author><![CDATA[abby0511]]></author>
                </item>

                </channel></rss>